<svg width="1024" height="1024" viewBox="0 0 1024 1024" fill="none" xmlns="http://www.w3.org/2000/svg">
<g clip-path="url(#clip0_5_785)">
<path fill-rule="evenodd" clip-rule="evenodd" d="M1350.58 1024.31C1392.49 884.785 1454.27 565.151 1415.37 271.028C1359.87 229.247 1191.31 254.509 909.379 666.997C909.379 666.997 919.276 821.275 944.675 916.246C956.145 959.134 979.971 1024.31 979.971 1024.31H1350.58Z" fill="#FFCC33"/>
<path fill-rule="evenodd" clip-rule="evenodd" d="M909.379 666.997C627.445 254.509 458.888 229.247 403.392 271.028C364.488 565.151 426.272 884.785 468.178 1024.31H838.787C838.787 1024.31 862.613 959.134 874.083 916.246C899.482 821.275 909.379 666.997 909.379 666.997Z" fill="#FFCC33"/>
<path d="M909.379 76.6265C794.405 77.6494 549.361 64.7658 470.971 5.04443C457.69 39.7253 444.248 80.5499 431.117 129.555C418.826 175.428 409.76 222.886 403.392 271.028C458.888 229.247 627.445 254.509 909.379 666.997C1191.31 254.509 1359.87 229.247 1415.37 271.028C1409 222.886 1399.93 175.428 1387.64 129.555C1374.51 80.5499 1361.07 39.7253 1347.79 5.04443C1269.4 64.7658 1024.35 77.6494 909.379 76.6265Z" fill="white"/>
<path fill-rule="evenodd" clip-rule="evenodd" d="M909.379 -481.207C828.226 -482.581 659.796 -478.113 580.017 -449.537C618.376 -270.325 593.825 -228.637 547.067 -149.24C525.176 -112.07 498.419 -66.6351 470.971 5.04443C549.361 64.7658 794.405 77.6494 909.379 76.6265C1024.35 77.6494 1269.4 64.7658 1347.79 5.04443C1320.34 -66.6351 1293.58 -112.07 1271.69 -149.24C1224.93 -228.637 1200.38 -270.325 1238.74 -449.537C1158.96 -478.113 990.532 -482.581 909.379 -481.207Z" fill="#FFCC33"/>
<path fill-rule="evenodd" clip-rule="evenodd" d="M909.379 -579.805C809.079 -551.66 634.068 -519.655 551.124 -567.543C560.374 -534.036 572.741 -483.527 580.017 -449.537C659.796 -478.113 828.226 -482.581 909.379 -481.207C990.532 -482.581 1158.96 -478.113 1238.74 -449.537C1246.02 -483.527 1258.38 -534.036 1267.63 -567.543C1184.69 -519.655 1009.68 -551.66 909.379 -579.805Z" fill="black" style="mix-blend-mode:overlay"/>
<path fill-rule="evenodd" clip-rule="evenodd" d="M909.379 -814.97C897.861 -820.725 879.376 -837.646 856.154 -858.903C772.883 -935.13 668.573 -1018.43 561.714 -939.916C444.266 -853.625 416.486 -695.778 551.124 -567.543C634.068 -519.655 809.079 -551.66 909.379 -579.805C1009.68 -551.66 1184.69 -519.655 1267.63 -567.543C1402.27 -695.778 1374.49 -853.625 1257.04 -939.916C1150.19 -1018.43 1045.87 -935.121 962.594 -858.894C939.377 -837.642 920.896 -820.724 909.379 -814.97Z" fill="white"/>
<path fill-rule="evenodd" clip-rule="evenodd" d="M909.379 -1397H801.726C772.081 -1286.36 733.282 -1278.83 553.791 -1243.98L551.124 -1243.46C369.349 -1208.17 335.818 -1141.1 346.407 -976.977C356.996 -812.85 323.464 -366.355 284.639 -281.645C245.813 -196.934 206.987 -69.8681 196.399 67.7865C189.813 153.395 149.782 305.897 110.688 454.823C86.9218 545.363 63.5019 634.582 48.1551 706.645C7.56464 897.244 129.336 987.249 175.221 987.249C211.929 987.249 190.516 916.657 175.221 881.361C231.695 916.657 263.461 655.466 247.578 567.226C231.695 478.986 300.522 256.62 386.997 67.7865C456.178 -83.2806 538.48 -401.87 551.124 -567.543C416.486 -695.778 444.266 -853.625 561.714 -939.916C668.573 -1018.43 772.883 -935.13 856.154 -858.903C879.376 -837.646 897.861 -820.725 909.379 -814.97C920.896 -820.724 939.377 -837.642 962.594 -858.894C1045.87 -935.121 1150.19 -1018.43 1257.04 -939.916C1374.49 -853.625 1402.27 -695.778 1267.63 -567.543C1280.28 -401.87 1362.58 -83.2806 1431.76 67.7865C1518.24 256.62 1587.06 478.986 1571.18 567.226C1555.3 655.466 1587.06 916.657 1643.54 881.361C1628.24 916.657 1606.83 987.249 1643.54 987.249C1689.42 987.249 1811.19 897.244 1770.6 706.645C1755.26 634.582 1731.84 545.363 1708.07 454.823C1668.98 305.897 1628.94 153.395 1622.36 67.7865C1611.77 -69.8681 1572.95 -196.934 1534.12 -281.645C1495.29 -366.355 1461.76 -812.85 1472.35 -976.977C1482.94 -1141.1 1449.41 -1208.17 1267.63 -1243.46L1264.97 -1243.98C1085.48 -1278.83 1046.68 -1286.36 1017.03 -1397H909.379Z" fill="#FFCC33"/>
<rect x="357" y="684" width="600" height="100" rx="20" fill="#FFCC33"/>
<rect x="357" y="684" width="600" height="100" rx="20" fill="black" style="mix-blend-mode:overlay"/>
<rect x="407" y="744" width="20" height="40" rx="4" fill="black"/>
<rect x="467" y="744" width="20" height="40" rx="4" fill="black"/>
<rect x="527" y="744" width="20" height="40" rx="4" fill="black"/>
<rect x="587" y="744" width="20" height="40" rx="4" fill="black"/>
<rect x="647" y="744" width="20" height="40" rx="4" fill="black"/>
<rect x="707" y="744" width="20" height="40" rx="4" fill="black"/>
<rect x="767" y="744" width="20" height="40" rx="4" fill="black"/>
<rect x="827" y="744" width="20" height="40" rx="4" fill="black"/>
<rect x="887" y="744" width="20" height="40" rx="4" fill="black"/>
<rect x="817" y="704" width="120" height="20" rx="10" fill="white"/>
<rect x="757" y="704" width="40" height="20" rx="10" fill="white"/>
</g>
<defs>
<clipPath id="clip0_5_785">
<rect width="1024" height="1024" fill="white"/>
</clipPath>
</defs>
</svg>
