<svg width="1024" height="1024" viewBox="0 0 1024 1024" fill="none" xmlns="http://www.w3.org/2000/svg">
<g clip-path="url(#clip0_5_773)">
<path fill-rule="evenodd" clip-rule="evenodd" d="M1465.58 1722.31C1507.49 1582.79 1569.27 1263.15 1530.37 969.028C1474.87 927.247 1306.31 952.509 1024.38 1365C1024.38 1365 1034.28 1519.27 1059.68 1614.25C1071.15 1657.13 1094.97 1722.31 1094.97 1722.31H1465.58Z" fill="#FFCC33"/>
<path fill-rule="evenodd" clip-rule="evenodd" d="M1024.38 1365C742.445 952.509 573.888 927.247 518.392 969.028C479.488 1263.15 541.272 1582.79 583.178 1722.31H953.787C953.787 1722.31 977.613 1657.13 989.083 1614.25C1014.48 1519.27 1024.38 1365 1024.38 1365Z" fill="#FFCC33"/>
<path d="M1024.38 774.626C909.405 775.649 664.361 762.766 585.971 703.044C572.69 737.725 559.248 778.55 546.117 827.555C533.826 873.428 524.76 920.886 518.392 969.028C573.888 927.247 742.445 952.509 1024.38 1365C1306.31 952.509 1474.87 927.247 1530.37 969.028C1524 920.886 1514.93 873.428 1502.64 827.555C1489.51 778.55 1476.07 737.725 1462.79 703.044C1384.4 762.766 1139.35 775.649 1024.38 774.626Z" fill="white"/>
<path fill-rule="evenodd" clip-rule="evenodd" d="M1024.38 216.793C943.226 215.419 774.796 219.887 695.017 248.463C733.376 427.675 708.825 469.363 662.067 548.76C640.176 585.93 613.419 631.365 585.971 703.044C664.361 762.766 909.405 775.649 1024.38 774.626C1139.35 775.649 1384.4 762.766 1462.79 703.044C1435.34 631.365 1408.58 585.93 1386.69 548.76C1339.93 469.363 1315.38 427.675 1353.74 248.463C1273.96 219.887 1105.53 215.419 1024.38 216.793Z" fill="#FFCC33"/>
<path fill-rule="evenodd" clip-rule="evenodd" d="M1024.38 118.195C924.079 146.34 749.068 178.345 666.124 130.457C675.374 163.964 687.741 214.473 695.017 248.463C774.796 219.887 943.226 215.419 1024.38 216.793C1105.53 215.419 1273.96 219.887 1353.74 248.463C1361.02 214.473 1373.38 163.964 1382.63 130.457C1299.69 178.345 1124.68 146.34 1024.38 118.195Z" fill="black" style="mix-blend-mode:overlay"/>
<path fill-rule="evenodd" clip-rule="evenodd" d="M1024.38 -116.97C1012.86 -122.725 994.376 -139.646 971.154 -160.903C887.883 -237.13 783.573 -320.426 676.714 -241.916C559.266 -155.625 531.486 2.22153 666.124 130.457C749.068 178.345 924.079 146.34 1024.38 118.195C1124.68 146.34 1299.69 178.345 1382.63 130.457C1517.27 2.22153 1489.49 -155.625 1372.04 -241.916C1265.19 -320.426 1160.87 -237.121 1077.59 -160.894C1054.38 -139.642 1035.9 -122.724 1024.38 -116.97Z" fill="white"/>
<path fill-rule="evenodd" clip-rule="evenodd" d="M1024.38 -699H916.726C887.081 -588.363 848.282 -580.83 668.791 -545.98L666.124 -545.462C484.349 -510.166 450.818 -443.104 461.407 -278.977C471.996 -114.85 438.464 331.645 399.639 416.355C360.813 501.066 321.987 628.132 311.399 765.786C304.813 851.395 264.782 1003.9 225.688 1152.82C201.922 1243.36 178.502 1332.58 163.155 1404.65C122.565 1595.24 244.336 1685.25 290.221 1685.25C326.929 1685.25 305.516 1614.66 290.221 1579.36C346.695 1614.66 378.461 1353.47 362.578 1265.23C346.695 1176.99 415.522 954.62 501.997 765.786C571.178 614.719 653.48 296.13 666.124 130.457C531.486 2.22153 559.266 -155.625 676.714 -241.916C783.573 -320.426 887.883 -237.13 971.154 -160.903C994.376 -139.646 1012.86 -122.725 1024.38 -116.97C1035.9 -122.724 1054.38 -139.642 1077.59 -160.894C1160.87 -237.121 1265.19 -320.426 1372.04 -241.916C1489.49 -155.625 1517.27 2.22153 1382.63 130.457C1395.28 296.13 1477.58 614.719 1546.76 765.786C1633.24 954.62 1702.06 1176.99 1686.18 1265.23C1670.3 1353.47 1702.06 1614.66 1758.54 1579.36C1743.24 1614.66 1721.83 1685.25 1758.54 1685.25C1804.42 1685.25 1926.19 1595.24 1885.6 1404.65C1870.26 1332.58 1846.84 1243.36 1823.07 1152.82C1783.98 1003.9 1743.94 851.395 1737.36 765.786C1726.77 628.132 1687.95 501.066 1649.12 416.355C1610.29 331.645 1576.76 -114.85 1587.35 -278.977C1597.94 -443.104 1564.41 -510.166 1382.63 -545.462L1379.97 -545.98C1200.48 -580.83 1161.68 -588.363 1132.03 -699H1024.38Z" fill="#FFCC33"/>
<rect x="336" y="160" width="400" height="100" rx="20" fill="#FFCC33"/>
<rect x="336" y="160" width="400" height="100" rx="20" fill="black" style="mix-blend-mode:overlay"/>
<rect x="376" y="220" width="20" height="40" rx="4" fill="black"/>
<rect x="436" y="220" width="20" height="40" rx="4" fill="black"/>
<rect x="496" y="220" width="20" height="40" rx="4" fill="black"/>
<rect x="556" y="220" width="20" height="40" rx="4" fill="black"/>
<rect x="616" y="220" width="20" height="40" rx="4" fill="black"/>
<rect x="676" y="220" width="20" height="40" rx="4" fill="black"/>
<rect x="596" y="180" width="120" height="20" rx="10" fill="white"/>
<rect x="536" y="180" width="40" height="20" rx="10" fill="white"/>
</g>
<defs>
<clipPath id="clip0_5_773">
<rect width="1024" height="1024" fill="white"/>
</clipPath>
</defs>
</svg>
