<svg width="1024" height="1024" viewBox="0 0 1024 1024" fill="none" xmlns="http://www.w3.org/2000/svg">
<g clip-path="url(#clip0_5_699)">
<path fill-rule="evenodd" clip-rule="evenodd" d="M732.29 1117.65C753.243 1047.89 784.135 888.075 764.683 741.014C736.935 720.124 652.656 732.754 511.69 938.999C511.69 938.999 516.638 1016.14 529.338 1063.62C535.073 1085.07 546.986 1117.65 546.986 1117.65H732.29Z" fill="#FFCC33"/>
<path fill-rule="evenodd" clip-rule="evenodd" d="M511.69 938.999C370.723 732.754 286.444 720.124 258.696 741.014C239.244 888.075 270.136 1047.89 291.089 1117.65H476.393C476.393 1117.65 488.307 1085.07 494.042 1063.62C506.741 1016.14 511.69 938.999 511.69 938.999Z" fill="#FFCC33"/>
<path d="M511.69 643.813C454.202 644.325 331.68 637.883 292.485 608.022C285.845 625.363 279.124 645.775 272.559 670.277C266.413 693.214 261.88 716.943 258.696 741.014C286.444 720.124 370.723 732.754 511.69 938.999C652.656 732.754 736.935 720.124 764.683 741.014C761.499 716.943 756.966 693.214 750.82 670.277C744.255 645.775 737.534 625.363 730.894 608.022C691.699 637.883 569.177 644.325 511.69 643.813Z" fill="white"/>
<path fill-rule="evenodd" clip-rule="evenodd" d="M511.69 364.897C471.113 364.209 386.898 366.443 347.008 380.732C366.188 470.338 353.912 491.182 330.533 530.88C319.588 549.465 306.209 572.182 292.485 608.022C331.68 637.883 454.202 644.325 511.69 643.813C569.177 644.325 691.699 637.883 730.894 608.022C717.17 572.182 703.791 549.465 692.846 530.88C669.467 491.182 657.191 470.338 676.371 380.732C636.481 366.443 552.266 364.209 511.69 364.897Z" fill="#FFCC33"/>
<path fill-rule="evenodd" clip-rule="evenodd" d="M511.69 315.597C461.539 329.67 374.034 345.673 332.562 321.729C337.187 338.482 343.371 363.737 347.008 380.732C386.898 366.443 471.113 364.209 511.69 364.897C552.266 364.209 636.481 366.443 676.371 380.732C680.008 363.737 686.192 338.482 690.817 321.729C649.345 345.673 561.84 329.67 511.69 315.597Z" fill="black" style="mix-blend-mode:overlay"/>
<path fill-rule="evenodd" clip-rule="evenodd" d="M511.69 198.015C505.93 195.137 496.688 186.677 485.077 176.048C443.442 137.935 391.286 96.2868 337.857 135.542C279.133 178.688 265.243 257.611 332.562 321.729C374.034 345.673 461.539 329.67 511.69 315.597C561.84 329.67 649.345 345.673 690.817 321.729C758.136 257.611 744.246 178.688 685.522 135.542C632.093 96.2868 579.933 137.939 538.297 176.053C526.689 186.679 517.448 195.138 511.69 198.015Z" fill="white"/>
<path fill-rule="evenodd" clip-rule="evenodd" d="M511.69 -93H457.863C443.041 -37.6817 423.641 -33.915 333.896 -16.49L332.562 -16.2311C241.675 1.41697 224.909 34.9482 230.203 117.012C235.498 199.075 218.732 422.322 199.319 464.678C179.907 507.033 160.494 570.566 155.199 639.393C151.907 682.198 131.891 758.448 112.344 832.912C100.461 878.182 88.751 922.791 81.0776 958.823C60.7823 1054.12 121.668 1099.12 144.61 1099.12C162.964 1099.12 152.258 1063.83 144.61 1046.18C172.847 1063.83 188.731 933.233 180.789 889.113C172.847 844.993 207.261 733.81 250.499 639.393C285.089 563.86 326.24 404.565 332.562 321.729C265.243 257.611 279.133 178.688 337.857 135.542C391.286 96.2868 443.442 137.935 485.077 176.048C496.688 186.677 505.93 195.137 511.69 198.015C517.448 195.138 526.689 186.679 538.297 176.053C579.933 137.939 632.093 96.2868 685.522 135.542C744.246 178.688 758.136 257.611 690.817 321.729C697.139 404.565 738.29 563.86 772.88 639.393C816.118 733.81 850.532 844.993 842.59 889.113C834.649 933.233 850.532 1063.83 878.769 1046.18C871.121 1063.83 860.415 1099.12 878.769 1099.12C901.711 1099.12 962.597 1054.12 942.302 958.823C934.628 922.791 922.918 878.182 911.035 832.912C891.488 758.448 871.472 682.198 868.18 639.393C862.885 570.566 843.473 507.033 824.06 464.678C804.647 422.322 787.881 199.075 793.176 117.012C798.47 34.9482 781.704 1.41697 690.817 -16.2311L689.483 -16.49C599.738 -33.915 580.339 -37.6817 565.516 -93H511.69Z" fill="#FFCC33"/>
<rect x="312" y="372" width="400" height="100" rx="20" fill="#FFCC33"/>
<rect x="312" y="372" width="400" height="100" rx="20" fill="black" style="mix-blend-mode:overlay"/>
<rect x="352" y="432" width="20" height="40" rx="4" fill="black"/>
<rect x="412" y="432" width="20" height="40" rx="4" fill="black"/>
<rect x="472" y="432" width="20" height="40" rx="4" fill="black"/>
<rect x="532" y="432" width="20" height="40" rx="4" fill="black"/>
<rect x="592" y="432" width="20" height="40" rx="4" fill="black"/>
<rect x="652" y="432" width="20" height="40" rx="4" fill="black"/>
<rect x="572" y="392" width="120" height="20" rx="10" fill="white"/>
<rect x="512" y="392" width="40" height="20" rx="10" fill="white"/>
</g>
<defs>
<clipPath id="clip0_5_699">
<rect width="1024" height="1024" fill="white"/>
</clipPath>
</defs>
</svg>
